<?xml version="1.0" standalone="no"?>
<!DOCTYPE svg PUBLIC "-//W3C//DTD SVG 20010904//EN"
 "http://www.w3.org/TR/2001/REC-SVG-20010904/DTD/svg10.dtd">
<svg version="1.0" xmlns="http://www.w3.org/2000/svg"
 width="300.000000pt" height="300.000000pt" viewBox="0 0 300.000000 300.000000"
 preserveAspectRatio="xMidYMid meet">

<g transform="translate(0.000000,300.000000) scale(0.100000,-0.100000)"
fill="#000000" stroke="none">
<path d="M275 2473 c-54 -14 -79 -78 -51 -131 19 -36 29 -39 183 -48 l121 -7
237 -628 236 -628 -49 -50 c-106 -106 -112 -263 -15 -371 46 -51 125 -90 182
-90 58 0 124 32 182 89 48 47 59 64 68 109 6 29 11 75 11 102 l0 50 259 0 260
0 -1 -72 c-1 -49 5 -87 17 -116 33 -79 152 -162 234 -162 53 0 126 35 178 85
124 121 104 301 -46 402 l-63 43 -432 0 c-238 0 -473 3 -523 6 l-90 7 -17 54
c-10 30 -16 57 -13 59 2 2 267 8 588 12 321 5 591 12 600 16 23 10 29 26 119
318 160 517 173 582 123 615 -25 17 -85 18 -918 21 l-891 3 -52 132 c-77 195
-59 182 -254 184 -90 1 -172 -1 -183 -4z m1059 -527 c3 -12 9 -73 12 -134 l7
-110 -204 -4 c-112 -2 -205 -2 -207 -2 -8 4 -99 260 -95 267 2 4 111 7 243 7
l238 0 6 -24z m511 -53 c-4 -43 -10 -105 -14 -138 l-6 -60 -191 -3 -191 -2 -6
82 c-4 46 -7 109 -7 141 l0 57 211 0 211 0 -7 -77z m545 60 c0 -10 -17 -73
-37 -140 l-37 -123 -199 0 -200 0 7 118 c11 182 -20 162 242 162 207 0 224 -1
224 -17z m-1026 -395 c3 -29 9 -86 12 -127 l7 -74 -158 6 c-87 4 -160 9 -162
11 -7 7 -83 211 -83 223 0 10 44 13 189 13 l189 0 6 -52z m452 -25 c-4 -43 -9
-99 -12 -125 l-6 -48 -163 0 -163 0 -6 63 c-3 34 -8 90 -12 125 l-5 62 187 0
186 0 -6 -77z m461 62 c4 -13 -51 -211 -62 -223 -2 -2 -76 -6 -165 -9 l-163
-6 7 64 c3 35 9 92 12 127 l6 62 179 0 c152 0 181 -2 186 -15z m-1099 -749
c25 -24 26 -79 2 -109 -59 -75 -179 13 -124 91 29 41 89 50 122 18z m1034 -10
c25 -30 23 -81 -4 -106 -48 -44 -138 -9 -138 54 0 32 27 67 60 79 25 8 64 -4
82 -27z"/>
</g>
</svg>
