<?xml version="1.0" standalone="no"?>
<!DOCTYPE svg PUBLIC "-//W3C//DTD SVG 20010904//EN"
 "http://www.w3.org/TR/2001/REC-SVG-20010904/DTD/svg10.dtd">
<svg version="1.0" xmlns="http://www.w3.org/2000/svg"
 width="600.000000pt" height="600.000000pt" viewBox="0 0 600.000000 600.000000"
 preserveAspectRatio="xMidYMid meet">

<g transform="translate(0.000000,600.000000) scale(0.100000,-0.100000)"
fill="#000000" stroke="none">
<path d="M710 5491 c-82 -25 -153 -95 -185 -182 -20 -53 -20 -79 -20 -2309 0
-2230 0 -2256 20 -2309 24 -65 82 -134 139 -164 l41 -22 1143 -3 1142 -2 0
980 0 980 -390 0 -390 0 2 383 3 382 388 3 387 2 0 188 c1 534 41 845 136
1040 38 78 121 175 191 223 97 67 262 118 468 144 124 15 961 42 990 32 13 -6
15 -51 15 -362 l0 -355 -142 0 c-175 0 -399 -16 -493 -35 -213 -44 -308 -131
-351 -320 -10 -47 -17 -145 -21 -292 l-6 -223 467 0 466 0 0 -385 0 -385 -445
0 -445 0 0 -1000 0 -1000 738 2 737 3 41 22 c57 30 115 99 139 164 20 53 20
79 20 2309 0 2222 0 2256 -20 2308 -24 67 -72 124 -133 160 l-47 27 -2280 2
c-1254 1 -2291 -2 -2305 -6z"/>
</g>
</svg>
