<?xml version="1.0" encoding="utf-8"?>
<!-- Generator: Adobe Illustrator 16.0.0, SVG Export Plug-In . SVG Version: 6.00 Build 0)  -->
<!DOCTYPE svg PUBLIC "-//W3C//DTD SVG 1.1//EN" "http://www.w3.org/Graphics/SVG/1.1/DTD/svg11.dtd">
<svg version="1.1" id="Capa_1" xmlns="http://www.w3.org/2000/svg" xmlns:xlink="http://www.w3.org/1999/xlink" x="0px" y="0px"
	 width="630px" height="626px" viewBox="-9.5 4.5 630 626" enable-background="new -9.5 4.5 630 626" xml:space="preserve">
<path fill="#FFFFFF" d="M568.5,568.526c0,7.165-5.907,12.974-13.195,12.974H51.695c-7.288,0-13.195-5.809-13.195-12.974V77.475
	c0-7.165,5.908-12.975,13.195-12.975h503.609c7.288,0,13.195,5.81,13.195,12.975V568.526z"/>
<title>Artboard 98</title>
<path d="M510,13.5H102c-56.333,0-102,45.667-102,102v408c0,56.333,45.667,102,102,102h408c56.333,0,102-45.667,102-102v-408
	C612,59.167,566.333,13.5,510,13.5z M561,523.5c0,28.167-22.833,51-51,51H102c-28.167,0-51-22.833-51-51v-408
	c0-28.167,22.833-51,51-51h408c28.167,0,51,22.833,51,51V523.5z"/>
<path d="M306,166.5c-84.5,0-153,68.5-153,153c0,84.5,68.5,153,153,153c84.5,0,153-68.5,153-153C459,235,390.5,166.5,306,166.5z
	 M306,421.5c-56.333,0-102-45.667-102-102s45.667-102,102-102s102,45.667,102,102S362.333,421.5,306,421.5z"/>
<circle cx="471.75" cy="153.75" r="38.25"/>
</svg>
