<?xml version="1.0" standalone="no"?>
<!DOCTYPE svg PUBLIC "-//W3C//DTD SVG 20010904//EN"
 "http://www.w3.org/TR/2001/REC-SVG-20010904/DTD/svg10.dtd">
<svg version="1.0" xmlns="http://www.w3.org/2000/svg"
 width="225.000000pt" height="225.000000pt" viewBox="0 0 225.000000 225.000000"
 preserveAspectRatio="xMidYMid meet">

<g transform="translate(0.000000,225.000000) scale(0.100000,-0.100000)"
fill="#000000" stroke="none">
<path d="M443 2115 c-151 -33 -265 -138 -317 -290 -19 -57 -20 -89 -24 -590
-3 -477 -2 -528 12 -510 8 11 18 35 22 53 5 26 11 32 31 32 13 0 21 4 18 10
-3 5 6 16 21 22 19 9 29 9 31 2 2 -6 21 -9 42 -7 43 3 51 -8 51 -76 0 -19 3
-31 7 -27 5 4 11 182 15 394 5 295 10 399 21 439 50 174 170 276 358 303 83
12 632 12 725 0 108 -14 176 -44 244 -106 61 -57 92 -108 117 -197 20 -69 30
-597 14 -748 -25 -246 -122 -363 -345 -414 -21 -4 -26 -9 -17 -15 11 -6 9 -10
-5 -19 -16 -10 -13 -12 19 -7 32 4 37 2 37 -15 0 -10 7 -19 15 -19 8 0 15 -5
15 -10 0 -6 11 -28 25 -50 14 -22 26 -55 27 -74 3 -30 7 -35 33 -40 136 -25
324 75 399 214 53 97 56 133 56 765 0 622 -3 664 -52 762 -55 110 -178 199
-307 223 -87 16 -1211 12 -1288 -5z"/>
<path d="M719 1730 c-97 -17 -171 -77 -206 -169 -14 -39 -17 -93 -20 -376 -3
-296 -2 -328 12 -311 15 20 15 20 16 0 0 -10 6 -1 14 21 9 28 13 33 14 18 1
-23 25 -31 36 -13 4 6 11 8 16 4 5 -3 24 2 41 11 29 14 34 14 44 0 13 -17 34
-20 34 -4 0 5 5 7 10 4 6 -3 10 -11 10 -16 0 -6 -4 -7 -10 -4 -5 3 -10 -1 -10
-9 0 -9 8 -16 19 -16 11 0 22 -4 25 -9 3 -5 16 -7 28 -3 17 4 20 2 15 -12 -4
-11 -3 -15 4 -10 6 4 14 1 18 -5 4 -6 18 -13 30 -16 23 -4 23 -4 6 15 -10 11
-20 18 -23 16 -7 -7 -27 16 -59 66 -18 29 -35 44 -46 42 -9 -1 -15 2 -11 7 3
5 10 6 16 3 8 -5 9 -1 3 12 -16 39 -35 119 -35 151 0 49 20 133 43 178 86 173
280 255 459 194 144 -48 231 -150 259 -302 34 -186 -90 -377 -280 -433 -25 -8
-34 -12 -19 -10 15 2 25 -1 22 -6 -4 -5 -27 -7 -54 -3 -29 4 -56 2 -67 -4 -17
-10 -17 -11 2 -12 11 -2 31 -3 45 -3 15 -1 24 -6 22 -14 -1 -8 2 -11 8 -7 17
11 74 -24 92 -55 15 -27 20 -29 38 -20 18 10 20 8 20 -20 0 -17 -4 -29 -8 -26
-5 3 -9 -1 -9 -9 0 -8 8 -15 18 -15 10 0 20 -3 23 -8 2 -4 32 -9 66 -10 135
-7 245 62 286 179 17 49 19 87 19 419 0 322 -2 371 -18 415 -33 97 -97 151
-205 174 -60 13 -678 13 -753 1z m835 -141 c35 -41 34 -83 -3 -120 -40 -40
-82 -39 -123 1 -27 27 -30 36 -25 72 7 51 37 77 89 78 28 0 42 -7 62 -31z
m-778 -681 c4 -7 3 -8 -4 -4 -7 4 -12 2 -12 -3 0 -6 5 -11 10 -11 6 0 10 -4
10 -10 0 -16 -17 -12 -24 6 -10 26 7 44 20 22z"/>
<path d="M1003 1363 c-56 -19 -126 -97 -143 -158 -7 -26 -10 -66 -7 -95 7 -55
33 -114 47 -105 6 3 7 0 4 -8 -6 -16 37 -53 91 -79 110 -55 248 -10 313 100
23 39 27 58 27 117 -1 84 -24 135 -87 189 -66 57 -156 71 -245 39z"/>
<path d="M551 824 c0 -11 3 -14 6 -6 3 7 2 16 -1 19 -3 4 -6 -2 -5 -13z"/>
<path d="M889 779 c-6 -13 -7 -19 -1 -15 11 6 62 -13 62 -23 0 -3 11 -7 25 -7
14 -1 25 2 25 7 0 5 -9 9 -20 9 -22 0 -80 26 -80 36 0 3 10 2 23 -1 17 -5 19
-4 7 4 -22 15 -28 14 -41 -10z"/>
</g>
</svg>
