<?xml version="1.0" standalone="no"?>
<!DOCTYPE svg PUBLIC "-//W3C//DTD SVG 20010904//EN"
 "http://www.w3.org/TR/2001/REC-SVG-20010904/DTD/svg10.dtd">
<svg version="1.0" xmlns="http://www.w3.org/2000/svg"
 width="225.000000pt" height="225.000000pt" viewBox="0 0 225.000000 225.000000"
 preserveAspectRatio="xMidYMid meet">

<g transform="translate(0.000000,225.000000) scale(0.100000,-0.100000)"
fill="#000000" stroke="none">
<path d="M182 1844 c-26 -18 -30 -69 -8 -100 12 -16 29 -20 118 -22 l103 -4
179 -474 178 -473 -31 -27 c-94 -79 -95 -229 -1 -307 29 -25 86 -47 120 -47
37 0 93 24 126 52 49 44 67 83 67 151 l0 57 196 0 196 0 -3 -49 c-7 -91 48
-170 137 -200 51 -17 82 -14 139 15 138 69 145 264 12 342 l-45 27 -391 3
-391 3 -12 37 c-7 20 -15 43 -17 50 -5 9 87 12 439 12 490 0 465 -3 486 62
199 640 198 635 135 658 -15 6 -278 10 -683 10 l-658 0 -42 110 c-25 66 -50
114 -61 120 -10 5 -74 10 -142 10 -96 0 -129 -4 -146 -16z m822 -411 c3 -27 7
-73 8 -103 l3 -55 -155 -3 -155 -2 -34 92 c-19 51 -36 99 -39 106 -3 9 37 12
181 12 l185 0 6 -47z m380 -15 c-3 -35 -7 -82 -10 -105 l-5 -43 -143 0 -143 0
-7 77 c-3 42 -6 89 -6 105 l0 28 160 0 160 0 -6 -62z m412 45 c-2 -10 -17 -57
-32 -105 l-26 -88 -149 0 -149 0 0 28 c0 16 3 63 6 105 l7 77 174 0 c161 0
174 -1 169 -17z m-771 -310 c3 -32 7 -75 9 -96 l4 -38 -120 3 -121 3 -28 75
c-16 41 -32 83 -35 93 -5 16 6 17 140 17 l145 0 6 -57z m337 -3 c-1 -30 -5
-72 -8 -92 l-6 -38 -122 0 -123 0 -6 68 c-4 37 -7 80 -7 95 l0 28 138 -3 137
-3 -3 -55z m348 43 c0 -10 -11 -52 -24 -93 l-24 -75 -121 -3 -121 -3 0 28 c0
15 3 58 7 96 l6 67 138 0 c126 0 139 -2 139 -17z m-826 -559 c20 -20 20 -68 0
-88 -35 -36 -104 -7 -104 42 0 53 68 83 104 46z m762 8 c23 -15 34 -50 25 -75
-23 -60 -121 -42 -121 23 0 29 30 60 58 60 15 0 32 -4 38 -8z"/>
</g>
</svg>
