<?xml version="1.0" standalone="no"?>
<!DOCTYPE svg PUBLIC "-//W3C//DTD SVG 20010904//EN"
 "http://www.w3.org/TR/2001/REC-SVG-20010904/DTD/svg10.dtd">
<svg version="1.0" xmlns="http://www.w3.org/2000/svg"
 width="267.000000pt" height="189.000000pt" viewBox="0 0 267.000000 189.000000"
 preserveAspectRatio="xMidYMid meet">

<g transform="translate(0.000000,189.000000) scale(0.100000,-0.100000)"
fill="#000000" stroke="none">
<path d="M1157 1719 c-43 -10 -120 -40 -170 -66 -75 -38 -110 -65 -188 -143
-82 -81 -102 -109 -142 -190 -67 -136 -82 -199 -82 -355 0 -148 14 -215 71
-335 l35 -76 -70 -202 c-38 -111 -67 -202 -64 -202 3 0 98 30 212 66 188 61
208 65 236 54 133 -56 202 -73 320 -77 85 -4 141 0 192 10 291 62 519 278 599
568 25 89 25 299 0 388 -61 223 -209 404 -410 501 -56 27 -133 56 -173 64 -99
22 -267 20 -366 -5z m401 -133 c179 -62 314 -186 391 -358 42 -93 55 -161 54
-273 -2 -248 -139 -462 -368 -576 -184 -91 -381 -91 -570 -1 l-80 38 -120 -37
c-65 -21 -121 -36 -123 -34 -2 2 14 57 36 123 35 106 38 120 25 138 -8 10 -27
44 -43 75 -123 240 -72 547 123 742 144 144 286 199 492 192 85 -2 126 -9 183
-29z"/>
<path d="M1017 1301 c-85 -94 -75 -206 32 -369 105 -160 211 -250 368 -314
108 -43 166 -47 236 -15 63 29 87 60 94 120 l5 43 -97 49 -96 50 -47 -53 c-26
-28 -53 -52 -60 -52 -81 0 -321 237 -287 284 6 7 23 31 38 53 l28 40 -31 82
c-45 123 -43 121 -99 121 -44 0 -52 -4 -84 -39z"/>
</g>
</svg>
